<?xml version="1.0" encoding="UTF-8"?>
<svg id="_图层_2" data-name="图层 2" xmlns="http://www.w3.org/2000/svg" xmlns:xlink="http://www.w3.org/1999/xlink" viewBox="0 0 256.74 183.44">
  <defs>
    <style>
      .cls-1 {
        fill: #fff;
      }

      .cls-2 {
        fill: url(#_未命名的渐变);
      }
    </style>
    <linearGradient id="_未命名的渐变" data-name="未命名的渐变" x1="-2806.22" y1="6402.15" x2="-2800.5" y2="6407.98" gradientTransform="translate(85675.41 -139524.42) scale(30.52 21.8)" gradientUnits="userSpaceOnUse">
      <stop offset="0" stop-color="#e30c34"/>
      <stop offset="1" stop-color="#b7062c"/>
    </linearGradient>
  </defs>
  <g id="_图层_2-2" data-name=" 图层 2">
    <g id="Group_1794" data-name="Group 1794">
      <path id="Path_4369" data-name="Path 4369" class="cls-2" d="M202.51,42.92C179,1.98,126.75-12.15,85.81,11.37c-22.03,12.65-37.29,34.44-41.64,59.47C13.48,77.95-5.63,108.59,1.48,139.28c5.99,25.86,29.04,44.17,55.58,44.16,1.93,0,3.86-.1,5.78-.29h116.83c1.91,.15,3.83,.29,5.78,.29,39.37,0,71.29-31.92,71.29-71.29,0-32.8-22.38-61.37-54.23-69.22h0Z"/>
      <g id="Group_1793" data-name="Group 1793">
        <path id="Path_4370" data-name="Path 4370" class="cls-1" d="M128.3,44.61l-44.16,25.5v25.49l22.09-12.75v51.32l22.08,12.73h0V70.09l22.08-12.75-22.08-12.74h0Z"/>
        <path id="Path_4371" data-name="Path 4371" class="cls-1" d="M150.5,82.99v51.17l22.17-12.8v-51.19l-22.17,12.81h0Z"/>
      </g>
    </g>
  </g>
</svg>